<svg width="176" height="53" fill="none" xmlns="http://www.w3.org/2000/svg"><rect x="1.5" y="1.5" width="173" height="50" rx="14.5" fill="#fff" stroke="#FFAAAE" stroke-width="3"/><path d="M36.498 33.217a15.537 15.537 0 01-1.532 2.755c-.806 1.15-1.467 1.945-1.974 2.388-.787.723-1.633 1.095-2.538 1.116-.648 0-1.431-.184-2.343-.56-.915-.373-1.755-.556-2.524-.556-.806 0-1.67.183-2.596.556-.924.376-1.67.572-2.242.59-.865.038-1.731-.343-2.593-1.146-.551-.48-1.24-1.305-2.066-2.472-.885-1.243-1.613-2.691-2.182-4.336-.611-1.781-.917-3.503-.917-5.171 0-1.91.412-3.558 1.239-4.938a7.285 7.285 0 012.595-2.627 6.975 6.975 0 013.51-.992c.69 0 1.595.212 2.715.632 1.12.42 1.84.634 2.154.634.237 0 1.034-.251 2.39-.747 1.279-.461 2.359-.651 3.244-.576 2.4.193 4.201 1.138 5.4 2.842-2.145 1.3-3.206 3.12-3.184 5.455.017 1.82.679 3.334 1.975 4.535a6.495 6.495 0 001.972 1.294c-.158.461-.326.9-.503 1.324zM30.997 11.57c0 1.425-.522 2.757-1.558 3.989-1.255 1.464-2.77 2.311-4.412 2.178a4.432 4.432 0 01-.032-.54c0-1.37.595-2.834 1.655-4.032.528-.606 1.2-1.112 2.015-1.514.813-.396 1.58-.615 2.303-.652.02.191.029.382.029.571zm20.975-.209V21h3.348c1.512 0 2.673-.445 3.483-1.323.77-.837 1.161-2.011 1.161-3.497 0-1.511-.364-2.686-1.08-3.496-.783-.891-1.93-1.323-3.456-1.323h-3.456zm1.107.958h2.173c1.27 0 2.188.324 2.781.986.554.621.837 1.58.837 2.875 0 1.256-.31 2.215-.904 2.863-.635.661-1.58.998-2.835.998h-2.052V12.32zm11.408 1.512c-1.053 0-1.876.351-2.497 1.08-.594.689-.891 1.553-.891 2.606 0 1.04.297 1.904.89 2.579.622.729 1.445 1.093 2.498 1.093 1.04 0 1.877-.364 2.511-1.093.58-.675.878-1.54.878-2.579 0-1.053-.297-1.917-.891-2.605-.621-.73-1.458-1.08-2.498-1.08zm0 .905c.73 0 1.31.284 1.742.85.364.513.553 1.148.553 1.931 0 .756-.189 1.404-.553 1.917-.432.567-1.013.85-1.742.85-.742 0-1.323-.283-1.728-.85-.378-.513-.553-1.148-.553-1.917 0-.783.175-1.418.553-1.93.405-.567.986-.851 1.728-.851zm4.022-.716L70.885 21h1.013l1.647-5.616L75.165 21h1.026l2.376-6.98h-1.188l-1.715 5.657-1.62-5.656h-1.012l-1.62 5.656-1.715-5.656H68.51zm14.228-.188c-.46 0-.878.107-1.256.323-.378.203-.688.5-.931.892V14.02h-1.08V21h1.08v-4.212c.04-.634.243-1.134.62-1.512.352-.351.77-.527 1.256-.527 1.215 0 1.836.675 1.836 2.039V21h1.08v-4.293c0-1.917-.877-2.876-2.605-2.876zm4.49-2.66V21h1.066v-9.828h-1.066zm6.08 2.66c-1.053 0-1.877.35-2.498 1.08-.594.688-.89 1.552-.89 2.605 0 1.04.296 1.904.89 2.579.621.729 1.445 1.093 2.498 1.093 1.04 0 1.876-.364 2.51-1.093.581-.675.878-1.54.878-2.579 0-1.053-.297-1.917-.89-2.605-.622-.73-1.459-1.08-2.498-1.08zm0 .904c.729 0 1.31.284 1.741.85.365.513.554 1.148.554 1.931 0 .756-.19 1.404-.554 1.917-.432.567-1.012.85-1.741.85-.743 0-1.323-.283-1.728-.85-.378-.513-.554-1.148-.554-1.917 0-.783.176-1.418.554-1.93.405-.567.985-.851 1.728-.851zm7.829-.905c-.837 0-1.499.162-2.012.487-.567.35-.931.904-1.08 1.633l1.067.081c.108-.446.337-.783.702-.999.324-.216.742-.31 1.255-.31 1.215 0 1.823.58 1.823 1.754v.365l-1.674.027c-1.053.014-1.863.216-2.43.594-.648.405-.959.999-.959 1.796 0 .567.216 1.039.648 1.404.419.35.972.526 1.674.526a3.54 3.54 0 001.742-.432 3.246 3.246 0 001.066-.931V21h1.013v-4.482c0-.81-.216-1.445-.621-1.904-.486-.526-1.215-.783-2.214-.783zm1.755 3.821v.594c0 .54-.257 1.026-.756 1.445a2.641 2.641 0 01-1.755.648c-.432 0-.783-.108-1.053-.311a.96.96 0 01-.392-.796c0-1.013.783-1.526 2.349-1.553l1.607-.027zm7.905-6.48v4.131c-.54-.986-1.309-1.472-2.308-1.472-.999 0-1.769.365-2.336 1.121-.526.675-.783 1.512-.783 2.538 0 1.053.257 1.917.783 2.592.567.729 1.364 1.107 2.39 1.107 1.053 0 1.836-.445 2.322-1.337V21h1.012v-9.828h-1.08zm-2.079 3.55c.621 0 1.134.244 1.526.757.378.499.58 1.16.58 1.97v.135c0 .784-.175 1.418-.513 1.904-.391.54-.931.81-1.633.81-.756 0-1.323-.283-1.701-.823-.338-.487-.5-1.148-.5-1.985 0-.837.162-1.485.513-1.957.378-.54.959-.81 1.728-.81zm12.447-.89c-1.053 0-1.877.35-2.498 1.08-.594.688-.891 1.552-.891 2.605 0 1.04.297 1.904.891 2.579.621.729 1.445 1.093 2.498 1.093 1.039 0 1.876-.364 2.511-1.093.58-.675.877-1.54.877-2.579 0-1.053-.297-1.917-.891-2.605-.621-.73-1.458-1.08-2.497-1.08zm0 .904c.729 0 1.309.284 1.741.85.365.513.554 1.148.554 1.931 0 .756-.189 1.404-.554 1.917-.432.567-1.012.85-1.741.85-.743 0-1.323-.283-1.728-.85-.378-.513-.554-1.148-.554-1.917 0-.783.176-1.418.554-1.93.405-.567.985-.851 1.728-.851zm8.058-.905c-.459 0-.877.109-1.255.325a2.45 2.45 0 00-.932.89v-1.025h-1.08V21h1.08v-4.212c.041-.634.243-1.134.621-1.512.351-.351.77-.527 1.256-.527 1.215 0 1.836.675 1.836 2.039V21h1.08v-4.293c0-1.917-.878-2.876-2.606-2.876zm10.633-2.065l-1.067.445v1.81h-1.404v.904h1.404v4.441c0 .527.108.919.338 1.189.243.297.661.445 1.228.445h1.053v-.904h-.891c-.243 0-.418-.068-.513-.176-.108-.108-.148-.297-.148-.554v-4.441h1.728v-.905h-1.728v-2.254zm2.936-.594V21h1.08v-3.983c0-.648.175-1.201.54-1.633.351-.432.796-.648 1.336-.648.581 0 1.026.175 1.35.526.297.351.459.851.459 1.499V21h1.08v-4.401c0-.891-.216-1.58-.648-2.052-.432-.486-1.066-.716-1.876-.716a2.5 2.5 0 00-1.269.325 2.505 2.505 0 00-.972 1.012v-3.996h-1.08zm10.377 2.66c-1.013 0-1.809.364-2.403 1.093-.594.688-.878 1.552-.878 2.578 0 1.134.297 2.026.918 2.7.594.649 1.404.986 2.403.986.905 0 1.647-.27 2.228-.783.472-.432.783-.972.945-1.647h-1.08c-.176.486-.405.85-.702 1.093-.351.284-.824.433-1.391.433-.661 0-1.188-.216-1.566-.648-.378-.433-.58-1.04-.634-1.823h5.508c-.027-1.215-.297-2.174-.81-2.848-.567-.756-1.418-1.134-2.538-1.134zm.027.904c1.323 0 2.065.742 2.2 2.241h-4.36c.067-.689.283-1.229.661-1.633.378-.405.878-.608 1.499-.608zM55.032 34.824a85.28 85.28 0 001.008-3.872h.08c.336 1.28.656 2.64 1.024 3.872l.352 1.296H54.68l.352-1.296zM50.936 41h2.4l.832-3.04h3.84L58.84 41h2.48l-3.808-11.856h-2.784L50.936 41zm11.77 0h2.368v-4.208h1.584c2.544 0 4.576-1.216 4.576-3.92 0-2.8-2.016-3.728-4.64-3.728h-3.888V41zm2.368-6.08v-3.888h1.344c1.632 0 2.496.464 2.496 1.84 0 1.36-.784 2.048-2.416 2.048h-1.424zM73.378 41h2.368v-4.208h1.584c2.544 0 4.576-1.216 4.576-3.92 0-2.8-2.016-3.728-4.64-3.728h-3.888V41zm2.368-6.08v-3.888h1.344c1.632 0 2.496.464 2.496 1.84 0 1.36-.784 2.048-2.416 2.048h-1.424zm15.465 6.304c2.736 0 4.352-1.648 4.352-3.584 0-1.712-.944-2.624-2.384-3.216l-1.552-.656c-1.008-.4-1.84-.704-1.84-1.552 0-.784.656-1.248 1.696-1.248.976 0 1.76.352 2.512.976l1.2-1.488c-.96-.976-2.336-1.52-3.712-1.52-2.4 0-4.096 1.488-4.096 3.424 0 1.728 1.2 2.688 2.4 3.184l1.584.672c1.056.448 1.776.72 1.776 1.6 0 .832-.656 1.36-1.888 1.36-1.04 0-2.16-.528-3.008-1.312l-1.36 1.632a6.31 6.31 0 004.32 1.728zM99.636 41h2.368v-9.872h3.36v-1.984h-9.056v1.984h3.328V41zm11.852.224c3.136 0 5.296-2.352 5.296-6.192 0-3.84-2.16-6.096-5.296-6.096s-5.296 2.24-5.296 6.096c0 3.84 2.16 6.192 5.296 6.192zm0-2.048c-1.76 0-2.88-1.616-2.88-4.144 0-2.544 1.12-4.064 2.88-4.064 1.76 0 2.88 1.52 2.88 4.064 0 2.528-1.12 4.144-2.88 4.144zM119.097 41h2.368v-4.48h1.648l2.432 4.48h2.64l-2.768-4.848c1.36-.528 2.256-1.632 2.256-3.408 0-2.72-1.968-3.6-4.448-3.6h-4.128V41zm2.368-6.352v-3.616h1.536c1.52 0 2.368.432 2.368 1.712 0 1.264-.848 1.904-2.368 1.904h-1.536zM130.003 41h7.44v-1.984h-5.072v-3.168h4.16v-1.984h-4.16v-2.736h4.896v-1.984h-7.264V41z" fill="#FFAAAE"/></svg>