<svg width="520" height="437" fill="none" xmlns="http://www.w3.org/2000/svg"><path d="M363.138 338.549l-4.864 37.295s2.395 3.316-4.78 8.348c-6.953 4.862-52.786 11.114-52.786 11.114s-5.928 2.203-8.153-6.083c-2.398-8.31-4.628-13.002-4.628-13.002-1.201-2.357-2.415-2.52-2.415-2.52-1.964-1.461-5.085-1.878-8.622-1.352-3.536.525-6.622 2.11-8.59 4.243-1.843 2.35-3.436 5.132-4.51 7.984-.802 2.489-1.799 5.751-2.989 9.786-2.276 9.082-8.143 8.897-8.143 8.897s-45.72 8.663-52.789 6.12c-7.069-2.543-4.742-6.825-4.742-6.825l-5.052-35.626m-29.676-170.435s-15.795 18.421-23.843 34.246c-6.037 11.869-11.334 14.994-17.596 68.123-6.219 52.951 4.53 52.991 7.204 54.473 3.321 1.943 8.886-.407 9.068-6.833.035-6.447-4.333-12.224-4.333-12.224s3.299 5.811 7.703 5.141c4.447-.848 10.356-4.624 12.582-9.472 0 0 2.059-1.001 1.171-14.951-.991-14.149-2.792-48.875.795-68.831 3.631-20.134 9.478-31.846 11.65-38.36 2.241-7.427 5.772-17.068-4.401-11.312zm213.246-17.038s16.482 12.918 24.778 26.092c6.223 9.881 11.737 11.166 16.784 63.413 5.095 52.064-6.531 56.219-9.484 58.858-3.613 3.309-9.725 3.081-9.442-3.686.078-6.604 5.089-14.077 5.089-14.077s-3.66 7.271-8.593 8.141c-4.776.89-11.139-.884-13.292-5.132 0 0-2.247-.104-.834-15.038 1.413-14.934 4.583-51.182 1.283-70.509-3.301-19.327-9.209-29.167-11.409-35.123-2.263-6.341-5.689-15.102 5.12-12.939z" fill="#FF9699"/><path d="M375.147 246.147c.697 4.281 1.075 8.521.926 12.884-1.103 56.061-28.866 106.216-118.077 121.988-64.152 11.374-112.003 3.887-113.994-80.768-.028-3.052-.009-6.288.33-9.484l.886-6.554s14.978-62.468 19.659-79.775c3.045-11.04 3.17-22.264 2.89-28.778-.232-6.698-.352-13.191-.216-20.032l.188-10.835c1.438-55.446 44.572-107.626 96.639-116.934 52.068-9.308 93.453 28.02 92.75 83.18l.055 8.009c-.105 7.988-.211 15.976-.843 24.087-.454 6.801-.594 17.452 1.884 26.915 4.019 15.568 16.687 73.209 16.687 73.209l.236 2.888z" fill="#FF9699"/><path d="M224.194 65.668c-.053 2.119-1.787 4.218-3.73 4.552-1.942.333-3.555-1.223-3.501-3.342.053-2.119 1.787-4.218 3.729-4.551 1.943-.334 3.441 1.015 3.502 3.341zm50.544-4.364c-.053 2.12-1.787 4.218-3.73 4.552-1.942.333-3.555-1.223-3.501-3.342.053-2.119 1.787-4.218 3.729-4.551 1.943-.334 3.604 1.036 3.502 3.341zm-6.739 17.388l-41.301 7.51c-1.149.274-1.979-.675-2.007-1.94-.029-1.266.986-2.398 2.135-2.67l41.3-7.51c1.149-.273 1.979.675 2.008 1.94-.145 1.244-.986 2.398-2.135 2.67z" fill="#FF9699"/><path d="M308.522 331.721l-4.864 37.292s2.395 3.316-4.78 8.348c-6.952 4.861-52.783 11.113-52.783 11.113s-5.928 2.203-8.153-6.083c-2.398-8.309-4.627-13-4.627-13-1.202-2.358-2.415-2.52-2.415-2.52-1.964-1.461-5.085-1.878-8.622-1.353-3.536.526-6.621 2.11-8.589 4.243-1.844 2.35-3.437 5.132-4.51 7.984-.803 2.489-1.799 5.751-2.989 9.785-2.276 9.082-8.143 8.896-8.143 8.896s-45.718 8.663-52.787 6.121c-7.068-2.543-4.741-6.825-4.741-6.825l-4.83-35.793m-29.907-170.27s-15.794 18.42-23.843 34.246c-6.037 11.869-11.334 14.993-17.596 68.123-6.219 52.951 4.53 52.99 7.204 54.473 3.32 1.942 8.886-.407 9.068-6.833.035-6.447-4.334-12.224-4.334-12.224s3.3 5.81 7.704 5.14c4.447-.848 10.356-4.624 12.582-9.472 0 0 2.059-1 1.171-14.951-.991-14.149-2.792-48.874.796-68.83 3.63-20.135 9.477-31.846 11.65-38.361 2.24-7.426 5.771-17.068-4.402-11.311zm213.247-17.038s16.481 12.917 24.778 26.092c6.222 9.881 11.736 11.166 16.783 63.412 5.095 52.065-6.531 56.22-9.484 58.859-3.613 3.309-9.725 3.08-9.443-3.686.078-6.604 5.09-14.077 5.09-14.077s-3.661 7.271-8.594 8.14c-4.776.89-11.138-.883-13.291-5.132 0 0-2.247-.103-.834-15.037 1.413-14.934 4.584-51.182 1.283-70.509-3.301-19.327-9.209-29.167-11.409-35.123-2.263-6.342-5.688-15.103 5.121-12.939z" fill="#EDCBD2"/><path d="M320.542 239.307c.697 4.282 1.075 8.522.926 12.885-1.103 56.062-28.868 106.219-118.083 121.992-64.154 11.374-112.007 3.887-113.998-80.77-.028-3.052-.008-6.289.33-9.484l.886-6.554s14.98-62.471 19.66-79.778c3.046-11.04 3.171-22.265 2.891-28.778-.232-6.698-.352-13.192-.216-20.033l.189-10.836c1.389-55.263 44.525-107.445 96.595-116.753 52.071-9.308 93.457 28.021 92.753 83.182l.055 8.009c-.105 7.989-.211 15.977-.843 24.088-.454 6.801-.595 17.452 1.884 26.916 4.019 15.568 16.687 73.211 16.687 73.211l.284 2.703z" fill="#F6D8DC"/><path d="M169.577 58.834c-.053 2.119-1.787 4.218-3.73 4.551-1.942.334-3.554-1.223-3.501-3.341.053-2.12 1.787-4.218 3.729-4.552 1.943-.334 3.604 1.036 3.502 3.342zm50.544-4.364c-.054 2.119-1.787 4.218-3.73 4.551-1.942.334-3.555-1.223-3.501-3.341.053-2.12 1.787-4.218 3.729-4.552 1.943-.334 3.604 1.036 3.502 3.342zm-6.736 17.39l-41.303 7.51c-1.149.273-1.979-.675-2.008-1.941-.028-1.266.986-2.398 2.135-2.67l41.303-7.511c1.149-.273 1.979.676 2.008 1.941.028 1.266-.986 2.398-2.135 2.67z" fill="#353B55"/></svg>