<svg width="176" height="53" fill="none" xmlns="http://www.w3.org/2000/svg"><rect x="1.5" y="1.5" width="173" height="50" rx="14.5" fill="#fff" stroke="#FFAAAE" stroke-width="3"/><path d="M30.431 26.424l4.436-4.436-14.327-8.051c-.95-.513-1.839-.585-2.619-.024l12.51 12.511zm5.192 5.193l4.61-2.594c.9-.503 1.394-1.218 1.394-2.01 0-.79-.494-1.506-1.392-2.01L36.06 22.66l-4.699 4.698 4.262 4.26zM17.15 15.003c-.096.296-.15.626-.15.987v22.057c0 .572.126 1.064.354 1.456L29.5 27.354 17.15 15.003zm13.281 13.282l-12.078 12.08c.231.088.48.135.742.135.469 0 .956-.138 1.453-.414l13.882-7.795-3.999-4.005zM58.09 11.172c-1.418 0-2.539.5-3.362 1.512-.783.932-1.161 2.106-1.161 3.537s.392 2.605 1.175 3.51c.837.972 2.025 1.458 3.55 1.458.797 0 1.539-.108 2.241-.324.661-.216 1.228-.5 1.688-.877v-3.942h-4.118v.958h3.024v2.457a4.586 4.586 0 01-1.215.54 5.605 5.605 0 01-1.512.216c-1.255 0-2.2-.378-2.835-1.12-.594-.703-.891-1.661-.891-2.876 0-1.242.297-2.228.918-2.957.621-.742 1.444-1.106 2.498-1.106.85 0 1.538.202 2.065.62.5.392.823.945.972 1.675h1.107c-.175-1.053-.594-1.85-1.269-2.403-.716-.595-1.674-.878-2.876-.878zm5.98.189V21h7.061v-.959h-5.953v-3.537h5.4v-.958h-5.4V12.32h5.724v-.959H64.07zm7.854 0v.958h3.402V21h1.093v-8.68h3.402v-.959h-7.897zm13.677 0V21h1.094v-9.639H85.6zm2.38 0v.958h3.403V21h1.093v-8.68h3.402v-.959h-7.898zm17.809-.189c-1.458 0-2.592.486-3.429 1.458-.797.918-1.188 2.106-1.188 3.564 0 1.445.391 2.633 1.188 3.55.837.959 1.971 1.445 3.415 1.445 1.445 0 2.592-.486 3.429-1.445.783-.918 1.188-2.092 1.188-3.55 0-1.471-.405-2.66-1.188-3.577-.837-.973-1.984-1.445-3.415-1.445zm0 .986c1.107 0 1.971.364 2.592 1.107.594.728.904 1.7.904 2.929 0 1.215-.31 2.174-.904 2.902-.621.73-1.499 1.107-2.606 1.107-1.107 0-1.984-.377-2.605-1.133-.594-.73-.891-1.688-.891-2.876 0-1.201.297-2.16.891-2.889.634-.77 1.512-1.147 2.619-1.147zm6.137-.797V21h1.107v-7.925h.041L118.556 21h1.134v-9.639h-1.107v7.843h-.041l-5.454-7.843h-1.161zM59.544 41.224c1.648 0 3.04-.64 3.84-1.424v-5.344h-4.208v1.936h2.096v2.336c-.336.288-.912.448-1.472.448-2.336 0-3.52-1.552-3.52-4.128 0-2.544 1.376-4.08 3.344-4.08 1.072 0 1.744.432 2.336.992l1.248-1.504c-.768-.784-1.952-1.52-3.664-1.52-3.152 0-5.68 2.288-5.68 6.192 0 3.952 2.464 6.096 5.68 6.096zm9.933 0c2.24 0 4.304-1.728 4.304-4.704s-2.064-4.704-4.304-4.704-4.304 1.728-4.304 4.704 2.064 4.704 4.304 4.704zm0-1.92c-1.216 0-1.904-1.088-1.904-2.784 0-1.68.688-2.784 1.904-2.784s1.904 1.104 1.904 2.784c0 1.696-.688 2.784-1.904 2.784zm10.015 1.92c2.24 0 4.304-1.728 4.304-4.704s-2.064-4.704-4.304-4.704-4.304 1.728-4.304 4.704 2.064 4.704 4.304 4.704zm0-1.92c-1.216 0-1.904-1.088-1.904-2.784 0-1.68.688-2.784 1.904-2.784s1.904 1.104 1.904 2.784c0 1.696-.688 2.784-1.904 2.784zm9.424 5.584c2.992 0 4.88-1.376 4.88-3.184 0-1.568-1.184-2.24-3.344-2.24h-1.52c-1.056 0-1.408-.256-1.408-.736 0-.368.144-.56.384-.768.384.128.8.208 1.152.208 1.92 0 3.456-1.024 3.456-3.04 0-.56-.176-1.056-.4-1.36h1.52V32.04h-3.232a4.215 4.215 0 00-1.344-.224c-1.904 0-3.616 1.136-3.616 3.232 0 1.056.576 1.904 1.2 2.352v.064c-.544.384-1.008 1.008-1.008 1.68 0 .736.352 1.2.816 1.504v.08c-.816.464-1.28 1.104-1.28 1.856 0 1.584 1.632 2.304 3.744 2.304zm.144-8.176c-.784 0-1.408-.592-1.408-1.664 0-1.04.608-1.632 1.408-1.632.8 0 1.408.592 1.408 1.632 0 1.072-.624 1.664-1.408 1.664zm.208 6.688c-1.296 0-2.128-.432-2.128-1.184 0-.368.176-.72.576-1.04.32.08.704.128 1.248.128h1.088c.96 0 1.488.16 1.488.8 0 .704-.928 1.296-2.272 1.296zm8.25-2.176c.56 0 .945-.096 1.217-.208l-.288-1.744c-.16.032-.224.032-.32.032-.224 0-.464-.176-.464-.72V28.232H95.31v10.256c0 1.664.576 2.736 2.208 2.736zm6.744 0c1.104 0 2.24-.384 3.12-.992l-.8-1.44c-.64.4-1.28.624-2.016.624-1.328 0-2.288-.768-2.48-2.24h5.52c.064-.208.112-.64.112-1.088 0-2.464-1.28-4.272-3.744-4.272-2.128 0-4.176 1.808-4.176 4.704 0 2.96 1.952 4.704 4.464 4.704zm-2.208-5.616c.176-1.296 1.008-1.968 1.952-1.968 1.152 0 1.696.768 1.696 1.968h-3.648zM113.472 41h2.368v-4.208h1.584c2.544 0 4.576-1.216 4.576-3.92 0-2.8-2.016-3.728-4.64-3.728h-3.888V41zm2.368-6.08v-3.888h1.344c1.632 0 2.496.464 2.496 1.84 0 1.36-.784 2.048-2.416 2.048h-1.424zm10.32 6.304c.56 0 .944-.096 1.216-.208l-.288-1.744c-.16.032-.224.032-.32.032-.224 0-.464-.176-.464-.72V28.232h-2.352v10.256c0 1.664.576 2.736 2.208 2.736zm5.046 0c1.024 0 1.92-.512 2.704-1.184h.064l.16.96h1.92v-5.232c0-2.592-1.168-3.952-3.44-3.952-1.408 0-2.688.528-3.744 1.184l.848 1.552c.832-.48 1.632-.848 2.464-.848 1.104 0 1.488.672 1.536 1.552-3.616.384-5.168 1.392-5.168 3.312 0 1.52 1.056 2.656 2.656 2.656zm.768-1.84c-.688 0-1.184-.304-1.184-1.008 0-.8.736-1.408 2.928-1.68v1.808c-.576.56-1.072.88-1.744.88zm7.262 5.216c2 0 2.96-1.216 3.744-3.328l3.184-9.232h-2.256l-1.232 4.16c-.208.832-.432 1.696-.64 2.528h-.08c-.256-.864-.48-1.728-.752-2.528l-1.424-4.16h-2.368l3.488 8.8-.16.528c-.256.784-.768 1.36-1.68 1.36a2.41 2.41 0 01-.624-.112l-.432 1.808c.352.112.704.176 1.232.176z" fill="#FFAAAE"/></svg>